<svg width="1536" height="1536" viewBox="0 0 1536 1536" fill="none" xmlns="http://www.w3.org/2000/svg">
<path fill-rule="evenodd" clip-rule="evenodd" d="M1536 768C1536 1192.15 1192.15 1536 768 1536C343.845 1536 0 1192.15 0 768C0 343.845 343.845 0 768 0C1192.15 0 1536 343.845 1536 768ZM379.111 1079.22H268C268 1108.69 279.706 1136.95 300.544 1157.79C321.381 1178.63 349.643 1190.33 379.111 1190.33H601.333C630.802 1190.33 659.063 1202.04 679.901 1222.88C700.738 1243.71 712.445 1271.98 712.445 1301.44V1357H823.556V1301.44C823.556 1271.98 835.262 1243.71 856.099 1222.88C876.937 1202.04 905.198 1190.33 934.667 1190.33H1156.89C1218 1190.33 1253 1138.67 1268 1079.22V968.112H1156.89V1079.22H879.111C849.643 1079.22 821.381 1090.93 800.544 1111.77C779.706 1132.6 768 1160.87 768 1190.33C768 1160.87 756.294 1132.6 735.456 1111.77C714.619 1090.93 686.358 1079.22 656.889 1079.22H379.111ZM268 568V457C268 427.532 279.706 399.27 300.544 378.433C321.381 357.596 349.643 345.889 379.111 345.889H601.333C630.802 345.889 659.063 334.183 679.901 313.346C700.738 292.508 712.445 264.247 712.445 234.778V179.223H823.556V234.778C823.556 264.247 835.262 292.508 856.099 313.346C876.937 334.183 905.198 345.889 934.667 345.889H1156.89C1218 345.889 1253 397.556 1268 457H1156.89H879.111C849.643 457 821.381 445.294 800.544 424.457C779.706 403.619 768 375.358 768 345.889C768 375.358 756.294 403.619 735.456 424.457C714.619 445.294 686.357 457 656.889 457H379.111V568.111H379V713H555V768V824V968H444V824H379V968H268V824H220V713H268V568.111V568ZM1092 568H981V712V768V823H1157V968H1268V823H1316V712H1268V568H1157V712H1092V568ZM807 768C807 816.37 794.507 854.945 780.123 877.921C775.092 885.957 770.941 890.666 768 893.367C765.059 890.666 760.908 885.957 755.877 877.921C741.493 854.945 729 816.37 729 768C729 719.63 741.493 681.055 755.877 658.079C760.908 650.043 765.059 645.334 768 642.633C770.941 645.334 775.092 650.043 780.123 658.079C794.507 681.055 807 719.63 807 768ZM763.118 896.754C763.111 896.724 763.361 896.592 763.892 896.447C763.391 896.711 763.126 896.784 763.118 896.754ZM772.108 896.447C772.639 896.592 772.889 896.724 772.882 896.754C772.874 896.784 772.609 896.711 772.108 896.447ZM772.882 639.246C772.889 639.276 772.639 639.408 772.108 639.553C772.609 639.289 772.874 639.217 772.882 639.246ZM763.892 639.553C763.361 639.408 763.111 639.276 763.118 639.246C763.126 639.217 763.391 639.289 763.892 639.553ZM917 768C917 899.444 850.29 1006 768 1006C685.71 1006 619 899.444 619 768C619 636.556 685.71 530 768 530C850.29 530 917 636.556 917 768Z" fill="#646CFF"/>
</svg>
