<svg width="2024" height="2024" viewBox="0 0 2024 2024" fill="none" xmlns="http://www.w3.org/2000/svg">
<path fill-rule="evenodd" clip-rule="evenodd" d="M783.429 224.889V0C722.808 0 664.67 23.6936 621.805 65.8684C578.939 108.043 554.858 165.245 554.858 224.889V674.667C554.858 734.311 530.776 791.512 487.91 833.687C445.045 875.862 386.907 899.556 326.286 899.556L212 899.556V1124.44H326.286C386.907 1124.44 445.045 1148.14 487.91 1190.31C530.776 1232.49 554.858 1289.69 554.858 1349.33V1799.11C554.858 1922.8 661.143 1993.64 783.429 2024H1012V1799.11H783.429L783.429 1236.89C783.429 1177.24 759.348 1120.04 716.482 1077.87C673.617 1035.69 615.479 1012 554.858 1012C615.479 1012 673.617 988.306 716.482 946.132C759.348 903.957 783.429 846.755 783.429 787.111L783.429 224.889ZM1012 0L1240.57 0C1301.19 0 1359.33 23.6936 1402.2 65.8684C1445.06 108.043 1469.14 165.245 1469.14 224.889L1469.14 674.667C1469.14 734.311 1493.22 791.512 1536.09 833.687C1578.95 875.862 1637.09 899.556 1697.71 899.556L1812 899.556L1812 1124.44H1697.71C1637.09 1124.44 1578.95 1148.14 1536.09 1190.31C1493.22 1232.49 1469.14 1289.69 1469.14 1349.33V1799.11C1469.14 1922.8 1362.86 1993.64 1240.57 2024V1799.11V1236.89C1240.57 1177.24 1264.65 1120.04 1307.52 1077.87C1350.38 1035.69 1408.52 1012 1469.14 1012C1408.52 1012 1350.38 988.306 1307.52 946.132C1264.65 903.957 1240.57 846.755 1240.57 787.111L1240.57 224.889L1012 224.889V0Z" fill="#646CFF"/>
</svg>
