<svg width="1536" height="1536" viewBox="0 0 1536 1536" fill="none" xmlns="http://www.w3.org/2000/svg">
<path fill-rule="evenodd" clip-rule="evenodd" d="M768 1536C1192.15 1536 1536 1192.15 1536 768C1536 343.845 1192.15 0 768 0C343.845 0 0 343.845 0 768C0 1192.15 343.845 1536 768 1536ZM656.777 268V379.111V656.889C656.777 686.357 645.071 714.619 624.234 735.456C603.396 756.294 575.135 768 545.666 768C575.135 768 603.396 779.706 624.234 800.544C645.071 821.381 656.777 849.643 656.777 879.111V1156.89H767.888V1268H656.777C597.333 1253 545.666 1218 545.666 1156.89V934.667C545.666 905.198 533.96 876.937 513.123 856.099C492.285 835.262 464.024 823.556 434.555 823.556H379V712.444H434.555C464.024 712.444 492.285 700.738 513.123 679.901C533.96 659.063 545.666 630.802 545.666 601.333V379.111C545.666 349.643 557.373 321.381 578.21 300.544C599.047 279.706 627.309 268 656.777 268ZM878.998 268H767.887V379.111H878.998V656.889C878.998 686.357 890.705 714.619 911.542 735.456C932.379 756.294 960.641 768 990.109 768C960.641 768 932.379 779.706 911.542 800.544C890.705 821.381 878.998 849.643 878.998 879.111V1156.89V1268C938.443 1253 990.109 1218 990.109 1156.89V934.667C990.109 905.198 1001.82 876.937 1022.65 856.099C1043.49 835.262 1071.75 823.556 1101.22 823.556H1156.78V712.444H1101.22C1071.75 712.444 1043.49 700.738 1022.65 679.901C1001.82 659.063 990.109 630.802 990.109 601.333V379.111C990.109 349.643 978.403 321.381 957.566 300.544C936.728 279.706 908.467 268 878.998 268Z" fill="#646CFF"/>
</svg>
